../results/experiments/subject02/walk3/expdata/ground_reaction.mot
version=1
nRows=55
nColumns=19
inDegrees=no
endheader
time	ground_force_r_vx	ground_force_r_vy	ground_force_r_vz	ground_force_r_px	ground_force_r_py	ground_force_r_pz	ground_force_l_vx	ground_force_l_vy	ground_force_l_vz	ground_force_l_px	ground_force_l_py	ground_force_l_pz	ground_torque_r_x	ground_torque_r_y	ground_torque_r_z	ground_torque_l_x	ground_torque_l_y	ground_torque_l_z
1.416667	-0.681141	8.291100	0.282032	0.000000	0.000000	0.000000	-145.443176	941.735413	73.309341	1.116844	0.000000	-0.570960	0.000000	0.000000	0.000000	-0.000000	4.451199	-0.000000
1.417708	-0.535715	7.836034	0.640367	0.000000	0.000000	0.000000	-143.802582	940.588440	72.754044	1.115342	0.000000	-0.570918	0.000000	0.000000	0.000000	-0.000000	4.482319	-0.000000
1.418750	-0.378999	7.436820	1.000967	0.000000	0.000000	0.000000	-142.176498	939.321350	72.155800	1.113847	0.000000	-0.570876	0.000000	0.000000	0.000000	-0.000000	4.513167	-0.000000
1.419792	-0.215068	7.087853	1.355079	0.000000	0.000000	0.000000	-140.569077	937.942810	71.524696	1.112359	0.000000	-0.570834	0.000000	0.000000	0.000000	-0.000000	4.543405	-0.000000
1.420833	-0.048061	6.783017	1.694416	0.000000	0.000000	0.000000	-138.983902	936.460632	70.870949	1.110877	0.000000	-0.570791	0.000000	0.000000	0.000000	-0.000000	4.572710	-0.000000
1.421875	0.117895	6.515856	2.011363	0.000000	0.000000	0.000000	-137.423935	934.882080	70.204559	1.109403	0.000000	-0.570748	0.000000	0.000000	0.000000	-0.000000	4.600775	-0.000000
1.422917	0.278767	6.279776	2.299161	0.000000	0.000000	0.000000	-135.891434	933.213684	69.535042	1.107936	0.000000	-0.570705	0.000000	0.000000	0.000000	-0.000000	4.627313	-0.000000
1.423958	0.430721	6.068245	2.552075	0.000000	0.000000	0.000000	-134.388062	931.461121	68.871140	1.106477	0.000000	-0.570661	0.000000	0.000000	0.000000	-0.000000	4.652058	-0.000000
1.425000	0.570222	5.874999	2.765518	0.000000	0.000000	0.000000	-132.914825	929.629761	68.220566	1.105026	0.000000	-0.570618	0.000000	0.000000	0.000000	-0.000000	4.674767	-0.000000
1.426042	0.694144	5.694226	2.936162	0.000000	0.000000	0.000000	-131.472183	927.724121	67.589828	1.103584	0.000000	-0.570575	0.000000	0.000000	0.000000	-0.000000	4.695225	-0.000000
1.427083	0.799860	5.520735	3.061994	0.000000	0.000000	0.000000	-130.060104	925.748413	66.984077	1.102150	0.000000	-0.570531	0.000000	0.000000	0.000000	-0.000000	4.713241	-0.000000
1.428125	0.885328	5.350085	3.142344	0.000000	0.000000	0.000000	-128.678177	923.706360	66.406982	1.100726	0.000000	-0.570488	0.000000	0.000000	0.000000	-0.000000	4.728652	-0.000000
1.429167	0.949151	5.178677	3.177868	0.000000	0.000000	0.000000	-127.325600	921.601074	65.860741	1.099311	0.000000	-0.570445	0.000000	0.000000	0.000000	-0.000000	4.741327	-0.000000
1.430208	0.990611	5.003811	3.170490	0.000000	0.000000	0.000000	-126.001335	919.435486	65.346039	1.097905	0.000000	-0.570402	0.000000	0.000000	0.000000	-0.000000	4.751160	-0.000000
1.431250	1.009676	4.823694	3.123299	0.000000	0.000000	0.000000	-124.704056	917.211914	64.862129	1.096508	0.000000	-0.570359	0.000000	0.000000	0.000000	-0.000000	4.758078	-0.000000
1.432292	1.006973	4.637408	3.040415	0.000000	0.000000	0.000000	-123.432198	914.932434	64.406929	1.095121	0.000000	-0.570317	0.000000	0.000000	0.000000	-0.000000	4.762035	-0.000000
1.433333	0.983740	4.444846	2.926814	0.000000	0.000000	0.000000	-122.183952	912.598572	63.977158	1.093743	0.000000	-0.570276	0.000000	0.000000	0.000000	-0.000000	4.763017	-0.000000
1.434375	0.941739	4.246612	2.788132	0.000000	0.000000	0.000000	-120.957245	910.211487	63.568501	1.092375	0.000000	-0.570236	0.000000	0.000000	0.000000	-0.000000	4.761035	-0.000000
1.435417	0.883163	4.043908	2.630450	0.000000	0.000000	0.000000	-119.749687	907.771851	63.175827	1.091017	0.000000	-0.570196	0.000000	0.000000	0.000000	-0.000000	4.756132	-0.000000
1.436458	0.810512	3.838397	2.460063	0.000000	0.000000	0.000000	-118.558556	905.279846	62.793385	1.089668	0.000000	-0.570158	0.000000	0.000000	0.000000	-0.000000	4.748376	-0.000000
1.437500	0.726478	3.632063	2.283259	0.000000	0.000000	0.000000	-117.380791	902.735291	62.415039	1.088328	0.000000	-0.570121	0.000000	0.000000	0.000000	-0.000000	4.737861	-0.000000
1.438542	0.633820	3.427076	2.106099	0.000000	0.000000	0.000000	-116.212952	900.137390	62.034508	1.086997	0.000000	-0.570085	0.000000	0.000000	0.000000	-0.000000	4.724704	-0.000000
1.439583	0.535248	3.225661	1.934216	0.000000	0.000000	0.000000	-115.051292	897.485168	61.645592	1.085675	0.000000	-0.570051	0.000000	0.000000	0.000000	-0.000000	4.709047	-0.000000
1.440625	0.433329	3.029979	1.772642	0.000000	0.000000	0.000000	-113.891769	894.776917	61.242386	1.084361	0.000000	-0.570019	0.000000	0.000000	0.000000	-0.000000	4.691052	-0.000000
1.441667	0.330407	2.842036	1.625666	0.000000	0.000000	0.000000	-112.730164	892.010864	60.819515	1.083057	0.000000	-0.569988	0.000000	0.000000	0.000000	-0.000000	4.670899	-0.000000
1.442708	0.228541	2.663592	1.496722	0.000000	0.000000	0.000000	-111.562180	889.184753	60.372311	1.081760	0.000000	-0.569960	0.000000	0.000000	0.000000	-0.000000	4.648788	-0.000000
1.443750	0.129478	2.496112	1.388328	0.000000	0.000000	0.000000	-110.383644	886.296326	59.896980	1.080472	0.000000	-0.569933	0.000000	0.000000	0.000000	-0.000000	4.624929	-0.000000
1.444792	0.034637	2.340722	1.302043	0.000000	0.000000	0.000000	-109.190643	883.343079	59.390759	1.079191	0.000000	-0.569909	0.000000	0.000000	0.000000	-0.000000	4.599550	-0.000000
1.445833	-0.054880	2.198186	1.238486	0.000000	0.000000	0.000000	-107.979736	880.322510	58.852024	1.077918	0.000000	-0.569888	0.000000	0.000000	0.000000	-0.000000	4.572884	-0.000000
1.446875	-0.138261	2.068903	1.197366	0.000000	0.000000	0.000000	-106.748161	877.232361	58.280369	1.076653	0.000000	-0.569869	0.000000	0.000000	0.000000	-0.000000	4.545176	-0.000000
1.447917	-0.214953	1.952918	1.177564	0.000000	0.000000	0.000000	-105.494011	874.070435	57.676662	1.075395	0.000000	-0.569853	0.000000	0.000000	0.000000	-0.000000	4.516672	-0.000000
1.448958	-0.284612	1.849941	1.177222	0.000000	0.000000	0.000000	-104.216400	870.834839	57.043053	1.074145	0.000000	-0.569839	0.000000	0.000000	0.000000	-0.000000	4.487624	-0.000000
1.450000	-0.347063	1.759381	1.193867	0.000000	0.000000	0.000000	-102.915565	867.524292	56.382942	1.072901	0.000000	-0.569829	0.000000	0.000000	0.000000	-0.000000	4.458284	-0.000000
1.451042	-0.402253	1.680386	1.224546	0.000000	0.000000	0.000000	-101.592972	864.137878	55.700935	1.071665	0.000000	-0.569821	0.000000	0.000000	0.000000	-0.000000	4.428901	-0.000000
1.452083	-0.450215	1.611890	1.265969	0.000000	0.000000	0.000000	-100.251305	860.675171	55.002754	1.070435	0.000000	-0.569816	0.000000	0.000000	0.000000	-0.000000	4.399719	-0.000000
1.453125	-0.491037	1.552665	1.314655	0.000000	0.000000	0.000000	-98.894402	857.136536	54.295101	1.069213	0.000000	-0.569815	0.000000	0.000000	0.000000	-0.000000	4.370976	-0.000000
1.454167	-0.524841	1.501378	1.367086	0.000000	0.000000	0.000000	-97.527161	853.522827	53.585506	1.067998	0.000000	-0.569817	0.000000	0.000000	0.000000	-0.000000	4.342901	-0.000000
1.455208	-0.551764	1.456651	1.419840	0.000000	0.000000	0.000000	-96.155334	849.835571	52.882164	1.066790	0.000000	-0.569821	0.000000	0.000000	0.000000	-0.000000	4.315711	-0.000000
1.456250	-0.571962	1.417119	1.469724	0.000000	0.000000	0.000000	-94.785339	846.076965	52.193722	1.065588	0.000000	-0.569830	0.000000	0.000000	0.000000	-0.000000	4.289611	-0.000000
1.457292	-0.585601	1.381485	1.513884	0.000000	0.000000	0.000000	-93.423927	842.249573	51.529064	1.064394	0.000000	-0.569841	0.000000	0.000000	0.000000	-0.000000	4.264791	-0.000000
1.458333	-0.592870	1.348577	1.549898	0.000000	0.000000	0.000000	-92.077957	838.356628	50.897079	1.063206	0.000000	-0.569856	0.000000	0.000000	0.000000	-0.000000	4.241424	-0.000000
1.459375	-0.593982	1.317393	1.575838	0.000000	0.000000	0.000000	-90.754028	834.401611	50.306431	1.062025	0.000000	-0.569874	0.000000	0.000000	0.000000	-0.000000	4.219664	-0.000000
1.460417	-0.589187	1.287141	1.590317	0.000000	0.000000	0.000000	-89.458221	830.388367	49.765308	1.060851	0.000000	-0.569895	0.000000	0.000000	0.000000	-0.000000	4.199647	-0.000000
1.461458	-0.578777	1.257265	1.592497	0.000000	0.000000	0.000000	-88.195816	826.320984	49.281204	1.059684	0.000000	-0.569920	0.000000	0.000000	0.000000	-0.000000	4.181491	-0.000000
1.462500	-0.563088	1.227468	1.582083	0.000000	0.000000	0.000000	-86.971062	822.203552	48.860683	1.058522	0.000000	-0.569948	0.000000	0.000000	0.000000	-0.000000	4.165290	-0.000000
1.463542	-0.542498	1.197706	1.559281	0.000000	0.000000	0.000000	-85.787003	818.040344	48.509190	1.057367	0.000000	-0.569979	0.000000	0.000000	0.000000	-0.000000	4.151118	-0.000000
1.464583	-0.517429	1.168193	1.524745	0.000000	0.000000	0.000000	-84.645340	813.835327	48.230862	1.056218	0.000000	-0.570013	0.000000	0.000000	0.000000	-0.000000	4.139028	-0.000000
1.465625	-0.488334	1.139372	1.479504	0.000000	0.000000	0.000000	-83.546432	809.592651	48.028389	1.055075	0.000000	-0.570051	0.000000	0.000000	0.000000	-0.000000	4.129049	-0.000000
1.466667	-0.455687	1.111888	1.424878	0.000000	0.000000	0.000000	-82.489250	805.316162	47.902905	1.053936	0.000000	-0.570093	0.000000	0.000000	0.000000	-0.000000	4.121190	-0.000000
1.467708	-0.419974	1.086556	1.362390	0.000000	0.000000	0.000000	-81.471504	801.009521	47.853924	1.052803	0.000000	-0.570137	0.000000	0.000000	0.000000	-0.000000	4.115440	-0.000000
1.468750	-0.381676	1.064310	1.293679	0.000000	0.000000	0.000000	-80.489761	796.676208	47.879307	1.051673	0.000000	-0.570185	0.000000	0.000000	0.000000	-0.000000	4.111766	-0.000000
1.469792	-0.341260	1.046163	1.220413	0.000000	0.000000	0.000000	-79.539642	792.319641	47.975300	1.050547	0.000000	-0.570235	0.000000	0.000000	0.000000	-0.000000	4.110116	-0.000000
1.470833	-0.299167	1.033154	1.144219	0.000000	0.000000	0.000000	-78.616028	787.942871	48.136589	1.049425	0.000000	-0.570289	0.000000	0.000000	0.000000	-0.000000	4.110418	-0.000000
1.471875	-0.255805	1.026304	1.066617	0.000000	0.000000	0.000000	-77.713326	783.548889	48.356445	1.048305	0.000000	-0.570346	0.000000	0.000000	0.000000	-0.000000	4.112585	-0.000000
1.472917	-0.211545	1.026573	0.988967	0.000000	0.000000	0.000000	-76.825684	779.140503	48.626877	1.047186	0.000000	-0.570406	0.000000	0.000000	0.000000	-0.000000	4.116512	-0.000000
